<?xml version="1.0" encoding="UTF-8" standalone="no"?>
<svg
   xmlns:osb="http://www.openswatchbook.org/uri/2009/osb"
   xmlns:dc="http://purl.org/dc/elements/1.1/"
   xmlns:cc="http://creativecommons.org/ns#"
   xmlns:rdf="http://www.w3.org/1999/02/22-rdf-syntax-ns#"
   xmlns:svg="http://www.w3.org/2000/svg"
   xmlns="http://www.w3.org/2000/svg"
   xmlns:xlink="http://www.w3.org/1999/xlink"
   xmlns:sodipodi="http://sodipodi.sourceforge.net/DTD/sodipodi-0.dtd"
   xmlns:inkscape="http://www.inkscape.org/namespaces/inkscape"
   width="64"
   viewBox="0 0 64 64"
   height="64"
   id="svg2"
   version="1.1"
   inkscape:version="0.91 r13725"
   sodipodi:docname="application-json.svg"
   inkscape:export-filename="E:\Usuarios\David\Desktop\android.png"
   inkscape:export-xdpi="90"
   inkscape:export-ydpi="90">
  <metadata
     id="metadata14">
    <rdf:RDF>
      <cc:Work
         rdf:about="">
        <dc:format>image/svg+xml</dc:format>
        <dc:type
           rdf:resource="http://purl.org/dc/dcmitype/StillImage" />
        <dc:title />
      </cc:Work>
    </rdf:RDF>
  </metadata>
  <defs
     id="defs12">
    <linearGradient
       id="linearGradient6527">
      <stop
         id="stop6529"
         offset="0"
         style="stop-color:#e67940;stop-opacity:1" />
      <stop
         id="stop6531"
         offset="1"
         style="stop-color:#ffa482;stop-opacity:1" />
    </linearGradient>
    <linearGradient
       osb:paint="gradient"
       id="linearGradient4207">
      <stop
         id="stop3371"
         offset="0"
         style="stop-color:#3498db;stop-opacity:1;" />
      <stop
         id="stop3373"
         offset="1"
         style="stop-color:#3498db;stop-opacity:0;" />
    </linearGradient>
    <linearGradient
       inkscape:collect="always"
       xlink:href="#linearGradient4422-1"
       id="linearGradient4182"
       x1="-74.929466"
       y1="52.199436"
       x2="-75.259552"
       y2="2.3564887"
       gradientUnits="userSpaceOnUse"
       gradientTransform="matrix(1.0749904,0,0,1.0292896,56.688954,-0.01528455)" />
    <linearGradient
       id="linearGradient4422-9">
      <stop
         style="stop-color:#ffa400;stop-opacity:1"
         offset="0"
         id="stop4424-7" />
      <stop
         style="stop-color:#ffdd00;stop-opacity:1"
         offset="1"
         id="stop4426-7" />
    </linearGradient>
    <linearGradient
       id="linearGradient4422">
      <stop
         style="stop-color:#db733d;stop-opacity:1"
         offset="0"
         id="stop4424" />
      <stop
         style="stop-color:#ff8f65;stop-opacity:1"
         offset="1"
         id="stop4426" />
    </linearGradient>
    <linearGradient
       id="linearGradient4422-1">
      <stop
         style="stop-color:#8798a9;stop-opacity:1"
         offset="0"
         id="stop4424-78" />
      <stop
         style="stop-color:#aeb6be;stop-opacity:1"
         offset="1"
         id="stop4426-8" />
    </linearGradient>
  </defs>
  <sodipodi:namedview
     pagecolor="#747474"
     bordercolor="#666666"
     borderopacity="1"
     objecttolerance="10"
     gridtolerance="10"
     guidetolerance="10"
     inkscape:pageopacity="1"
     inkscape:pageshadow="2"
     inkscape:window-width="683"
     inkscape:window-height="741"
     id="namedview10"
     showgrid="false"
     inkscape:zoom="7.4552197"
     inkscape:cx="19.745126"
     inkscape:cy="28.655554"
     inkscape:window-x="0"
     inkscape:window-y="27"
     inkscape:window-maximized="0"
     inkscape:current-layer="text4161"
     inkscape:snap-bbox="true"
     inkscape:bbox-nodes="true"
     inkscape:object-nodes="true"
     borderlayer="false"
     showguides="true"
     inkscape:snap-nodes="true"
     inkscape:object-paths="false"
     inkscape:showpageshadow="false"
     showborder="true">
    <inkscape:grid
       type="xygrid"
       id="grid4160"
       visible="true" />
    <sodipodi:guide
       position="28.888657,63.404975"
       orientation="0,35.2"
       id="guide6108" />
    <sodipodi:guide
       position="54,55.679691"
       orientation="51.200004,0"
       id="guide6112" />
    <sodipodi:guide
       position="58.527669,62"
       orientation="0,1"
       id="guide6114"
       inkscape:label=""
       inkscape:color="rgb(0,0,255)" />
    <sodipodi:guide
       position="10,4"
       orientation="-56,0"
       id="guide6116" />
    <sodipodi:guide
       position="11,4"
       orientation="-2.8421709e-014,0"
       id="guide6118" />
    <sodipodi:guide
       position="12,62"
       orientation="0,35.2"
       id="guide6120" />
    <sodipodi:guide
       position="52,2"
       orientation="0,-40"
       id="guide6126" />
    <sodipodi:guide
       position="12,62"
       orientation="0,35.2"
       id="guide6138" />
    <sodipodi:guide
       position="55,3"
       orientation="0,-40"
       id="guide6156" />
    <sodipodi:guide
       position="53,4.3973202"
       orientation="-56,0"
       id="guide6158" />
    <sodipodi:guide
       position="21,48"
       orientation="0,22"
       id="guide4238" />
    <sodipodi:guide
       position="43,48"
       orientation="22,0"
       id="guide4240" />
    <sodipodi:guide
       position="43,26"
       orientation="0,-22"
       id="guide4242" />
    <sodipodi:guide
       position="21,26"
       orientation="-22,0"
       id="guide4244" />
  </sodipodi:namedview>
  <g
     id="g4186"
     transform="translate(56.391766,-0.17677665)">
    <rect
       ry="2.5"
       y="54.477486"
       x="-46.391766"
       height="7.6992903"
       width="44"
       id="rect4162"
       style="opacity:1;fill:#3d434a;fill-opacity:1;stroke:none;stroke-width:0.185;stroke-linecap:round;stroke-linejoin:round;stroke-miterlimit:4;stroke-dasharray:none;stroke-dashoffset:0;stroke-opacity:1" />
    <rect
       ry="2.5"
       y="1.6457753"
       x="-46.391766"
       height="52.831711"
       width="44"
       id="rect4174"
       style="opacity:1;fill:url(#linearGradient4182);fill-opacity:1.0;stroke:none;stroke-width:0.30000001;stroke-linecap:round;stroke-linejoin:round;stroke-miterlimit:4;stroke-dasharray:none;stroke-dashoffset:0;stroke-opacity:1" />
    <rect
       ry="0"
       y="51.264462"
       x="-46.391766"
       height="7.9118414"
       width="44"
       id="rect4184"
       style="opacity:1;fill:#3d434a;fill-opacity:1;stroke:none;stroke-width:0.185;stroke-linecap:round;stroke-linejoin:round;stroke-miterlimit:4;stroke-dasharray:none;stroke-dashoffset:0;stroke-opacity:1" />
    <g
       style="font-style:normal;font-weight:normal;font-size:9.36996746px;line-height:125%;font-family:sans-serif;letter-spacing:0px;word-spacing:0px;fill:#ffffff;fill-opacity:1;stroke:none;stroke-width:1px;stroke-linecap:butt;stroke-linejoin:miter;stroke-opacity:1"
       id="text4161"
       transform="matrix(0.81954967,0,0,0.81954967,-4.3342833,10.721775)">
      <g
         style="font-style:normal;font-weight:normal;font-size:30.50455666px;line-height:125%;font-family:sans-serif;letter-spacing:0px;word-spacing:0px;fill:#ffffff;fill-opacity:1;stroke:none;stroke-width:1px;stroke-linecap:butt;stroke-linejoin:miter;stroke-opacity:1"
         id="text4173"
         transform="matrix(0.34038136,0,0,0.34038136,-5.7928717,50.909195)">
        <path
           d="m -75.618731,5.9358443 q -0.579586,0.5795866 -1.403209,0.5795866 -0.823623,0 -1.40321,-0.5795866 -0.579586,-0.5795865 -0.579586,-1.4032096 0,-0.823623 0.579586,-1.4032096 0.579587,-0.5795866 1.40321,-0.5795866 0.823623,0 1.403209,0.5795866 0.579587,0.5795866 0.579587,1.4032096 0,0.8236231 -0.579587,1.4032096 z M -80.1029,31.529167 q -0.823623,0 -1.647246,-0.305045 l 0.732109,-2.440365 q 0.396559,0.183028 0.823623,0.183028 1.769264,0 1.769264,-2.318347 l 0,-16.9605332 2.806419,0 0,16.9605332 q 0,2.470869 -1.189677,3.660547 -1.189678,1.220182 -3.294492,1.220182 z"
           style="font-style:normal;font-variant:normal;font-weight:normal;font-stretch:normal;font-family:'Product Sans';-inkscape-font-specification:'Product Sans';fill:#ffffff;fill-opacity:1"
           id="path4178"
           inkscape:connector-curvature="0" />
        <path
           d="m -66.563644,25.12321 q -2.501373,0 -4.148619,-1.220182 -1.616742,-1.220182 -2.379356,-3.050455 l 2.501374,-1.037155 q 1.189678,2.806419 4.057106,2.806419 1.311696,0 2.135319,-0.579587 0.854128,-0.579586 0.854128,-1.525228 0,-1.464218 -2.043806,-1.982796 l -3.019951,-0.732109 q -1.433714,-0.366055 -2.714905,-1.372705 -1.281192,-1.037155 -1.281192,-2.775915 0,-1.982796 1.73876,-3.202978 1.769264,-1.2506871 4.179124,-1.2506871 1.982796,0 3.538529,0.9151371 1.555732,0.884632 2.226832,2.562382 l -2.440364,1.006651 q -0.823623,-1.982796 -3.41651,-1.982796 -1.250687,0 -2.104815,0.518577 -0.854127,0.518577 -0.854127,1.40321 0,1.281191 1.982796,1.738759 l 2.958942,0.701605 q 2.104814,0.488073 3.111464,1.677751 1.006651,1.189677 1.006651,2.684401 0,2.0133 -1.647246,3.355501 -1.647246,1.3422 -4.240134,1.3422 z"
           style="font-style:normal;font-variant:normal;font-weight:normal;font-stretch:normal;font-family:'Product Sans';-inkscape-font-specification:'Product Sans';fill:#ffffff;fill-opacity:1"
           id="path4180"
           inkscape:connector-curvature="0" />
        <path
           d="m -56.743084,11.487674 q 2.165824,-2.2878421 5.521325,-2.2878421 3.355501,0 5.521325,2.2878421 2.165823,2.257337 2.165823,5.673847 0,3.416511 -2.165823,5.704352 -2.165824,2.257337 -5.521325,2.257337 -3.355501,0 -5.521325,-2.257337 -2.165823,-2.287841 -2.165823,-5.704352 0,-3.41651 2.165823,-5.673847 z m 2.07431,9.608935 q 1.464219,1.464219 3.447015,1.464219 1.982796,0 3.41651,-1.464219 1.464219,-1.494723 1.464219,-3.935088 0,-2.440364 -1.464219,-3.904583 -1.433714,-1.494723 -3.41651,-1.494723 -1.982796,0 -3.447015,1.494723 -1.433714,1.464219 -1.433714,3.904583 0,2.440365 1.433714,3.935088 z"
           style="font-style:normal;font-variant:normal;font-weight:normal;font-stretch:normal;font-family:'Product Sans';-inkscape-font-specification:'Product Sans';fill:#ffffff;fill-opacity:1"
           id="path4182"
           inkscape:connector-curvature="0" />
        <path
           d="m -38.56904,9.6879048 0,2.0743102 0.122018,0 q 0.610091,-1.06766 1.921787,-1.7997692 1.311696,-0.7626139 2.806419,-0.7626139 2.775915,0 4.240133,1.7082551 1.464219,1.708255 1.464219,4.575684 l 0,9.151367 -2.806419,0 0,-8.724304 q 0,-4.148619 -3.691051,-4.148619 -1.73876,0 -2.836924,1.403209 -1.098164,1.372705 -1.098164,3.202979 l 0,8.266735 -2.806419,0 0,-14.9472332 2.684401,0 z"
           style="font-style:normal;font-variant:normal;font-weight:normal;font-stretch:normal;font-family:'Product Sans';-inkscape-font-specification:'Product Sans';fill:#ffffff;fill-opacity:1"
           id="path4184"
           inkscape:connector-curvature="0" />
      </g>
      <g
         transform="matrix(1.2201823,0,0,1.2201823,-542.54772,-639.11703)"
         id="text55110"
         style="font-style:normal;font-weight:normal;font-size:24.0174427px;line-height:125%;font-family:sans-serif;letter-spacing:0px;word-spacing:0px;fill:#3d434a;fill-opacity:1;stroke:none;stroke-width:1px;stroke-linecap:butt;stroke-linejoin:miter;stroke-opacity:1">
        <path
           id="path4163"
           style="font-style:normal;font-variant:normal;font-weight:normal;font-stretch:normal;font-family:'Product Sans';-inkscape-font-specification:'Product Sans';fill:#3d434a;fill-opacity:1"
           d="m 420.71951,551.24312 q -1.84934,0 -2.93013,-1.08079 -1.05676,-1.08078 -1.05676,-2.88209 l 0,-4.10698 q 0,-0.98472 -0.50437,-1.48909 -0.50437,-0.52838 -1.27293,-0.52838 l 0,-1.82533 q 0.76856,0 1.27293,-0.50436 0.50437,-0.52839 0.50437,-1.5131 l 0,-4.10698 q 0,-1.80131 1.05676,-2.8821 1.08079,-1.08078 2.93013,-1.08078 l 0.52838,0 0,1.82532 -0.52838,0 q -0.84061,0 -1.41703,0.60044 -0.5524,0.60044 -0.5524,1.60917 l 0,4.10698 q 0,2.18559 -1.6572,2.81004 l 0,0.0961 q 1.6572,0.57642 1.6572,2.81004 l 0,4.10699 q 0,1.00873 0.5524,1.60916 0.57642,0.60044 1.41703,0.60044 l 0.52838,0 0,1.82533 -0.52838,0 z"
           inkscape:connector-curvature="0" />
        <path
           id="path4165"
           style="font-style:normal;font-variant:normal;font-weight:normal;font-stretch:normal;font-family:'Product Sans';-inkscape-font-specification:'Product Sans';fill:#3d434a;fill-opacity:1"
           d="m 428.62275,551.24312 -0.52838,0 0,-1.82533 0.52838,0 q 0.84061,0 1.39301,-0.60044 0.57642,-0.60043 0.57642,-1.60916 l 0,-4.10699 q 0,-2.23362 1.65721,-2.81004 l 0,-0.0961 q -1.65721,-0.62445 -1.65721,-2.81004 l 0,-4.10698 q 0,-1.00873 -0.57642,-1.60917 -0.5524,-0.60044 -1.39301,-0.60044 l -0.52838,0 0,-1.82532 0.52838,0 q 1.84934,0 2.90611,1.08078 1.08079,1.08079 1.08079,2.8821 l 0,4.10698 q 0,0.98471 0.50436,1.5131 0.50437,0.50436 1.27293,0.50436 l 0,1.82533 q -0.76856,0 -1.27293,0.52838 -0.50436,0.50437 -0.50436,1.48909 l 0,4.10698 q 0,1.80131 -1.08079,2.88209 -1.05677,1.08079 -2.90611,1.08079 z"
           inkscape:connector-curvature="0" />
      </g>
    </g>
  </g>
</svg>
