<?xml version="1.0" encoding="UTF-8" standalone="no"?>
<svg
   xmlns:osb="http://www.openswatchbook.org/uri/2009/osb"
   xmlns:dc="http://purl.org/dc/elements/1.1/"
   xmlns:cc="http://creativecommons.org/ns#"
   xmlns:rdf="http://www.w3.org/1999/02/22-rdf-syntax-ns#"
   xmlns:svg="http://www.w3.org/2000/svg"
   xmlns="http://www.w3.org/2000/svg"
   xmlns:xlink="http://www.w3.org/1999/xlink"
   xmlns:sodipodi="http://sodipodi.sourceforge.net/DTD/sodipodi-0.dtd"
   xmlns:inkscape="http://www.inkscape.org/namespaces/inkscape"
   width="64"
   viewBox="0 0 64 64"
   height="64"
   id="svg2"
   version="1.1"
   inkscape:version="0.91 r13725"
   sodipodi:docname="application-javascript.svg"
   inkscape:export-filename="E:\Usuarios\David\Desktop\android.png"
   inkscape:export-xdpi="90"
   inkscape:export-ydpi="90">
  <metadata
     id="metadata14">
    <rdf:RDF>
      <cc:Work
         rdf:about="">
        <dc:format>image/svg+xml</dc:format>
        <dc:type
           rdf:resource="http://purl.org/dc/dcmitype/StillImage" />
        <dc:title />
      </cc:Work>
    </rdf:RDF>
  </metadata>
  <defs
     id="defs12">
    <linearGradient
       id="linearGradient6527">
      <stop
         id="stop6529"
         offset="0"
         style="stop-color:#e67940;stop-opacity:1" />
      <stop
         id="stop6531"
         offset="1"
         style="stop-color:#ffa482;stop-opacity:1" />
    </linearGradient>
    <linearGradient
       osb:paint="gradient"
       id="linearGradient4207">
      <stop
         id="stop3371"
         offset="0"
         style="stop-color:#3498db;stop-opacity:1;" />
      <stop
         id="stop3373"
         offset="1"
         style="stop-color:#3498db;stop-opacity:0;" />
    </linearGradient>
    <linearGradient
       id="linearGradient4422-9">
      <stop
         style="stop-color:#ffa400;stop-opacity:1"
         offset="0"
         id="stop4424-7" />
      <stop
         style="stop-color:#ffdd00;stop-opacity:1"
         offset="1"
         id="stop4426-7" />
    </linearGradient>
    <linearGradient
       id="linearGradient4422">
      <stop
         style="stop-color:#db733d;stop-opacity:1"
         offset="0"
         id="stop4424" />
      <stop
         style="stop-color:#ff8f65;stop-opacity:1"
         offset="1"
         id="stop4426" />
    </linearGradient>
    <linearGradient
       id="linearGradient4422-1">
      <stop
         style="stop-color:#8798a9;stop-opacity:1"
         offset="0"
         id="stop4424-78" />
      <stop
         style="stop-color:#aeb6be;stop-opacity:1"
         offset="1"
         id="stop4426-8" />
    </linearGradient>
    <linearGradient
       inkscape:collect="always"
       xlink:href="#linearGradient4422-9"
       id="linearGradient4182-8"
       x1="-74.929466"
       y1="52.199436"
       x2="-75.259552"
       y2="2.3564887"
       gradientUnits="userSpaceOnUse"
       gradientTransform="matrix(1.0749904,0,0,1.0292896,56.688953,-0.0059945)" />
  </defs>
  <sodipodi:namedview
     pagecolor="#747474"
     bordercolor="#666666"
     borderopacity="1"
     objecttolerance="10"
     gridtolerance="10"
     guidetolerance="10"
     inkscape:pageopacity="1"
     inkscape:pageshadow="2"
     inkscape:window-width="1366"
     inkscape:window-height="741"
     id="namedview10"
     showgrid="false"
     inkscape:zoom="3.7276099"
     inkscape:cx="109.5187"
     inkscape:cy="45.557521"
     inkscape:window-x="0"
     inkscape:window-y="27"
     inkscape:window-maximized="1"
     inkscape:current-layer="g4186"
     inkscape:snap-bbox="true"
     inkscape:bbox-nodes="true"
     inkscape:object-nodes="true"
     borderlayer="false"
     showguides="false"
     inkscape:snap-nodes="true"
     inkscape:object-paths="false"
     inkscape:showpageshadow="false"
     showborder="true">
    <inkscape:grid
       type="xygrid"
       id="grid4160"
       visible="true" />
    <sodipodi:guide
       position="28.888657,63.404975"
       orientation="0,35.2"
       id="guide6108" />
    <sodipodi:guide
       position="54,55.679691"
       orientation="51.200004,0"
       id="guide6112" />
    <sodipodi:guide
       position="58.527669,62"
       orientation="0,1"
       id="guide6114"
       inkscape:label=""
       inkscape:color="rgb(0,0,255)" />
    <sodipodi:guide
       position="10,4"
       orientation="-56,0"
       id="guide6116" />
    <sodipodi:guide
       position="11,4"
       orientation="-2.8421709e-014,0"
       id="guide6118" />
    <sodipodi:guide
       position="12,62"
       orientation="0,35.2"
       id="guide6120" />
    <sodipodi:guide
       position="52,2"
       orientation="0,-40"
       id="guide6126" />
    <sodipodi:guide
       position="12,62"
       orientation="0,35.2"
       id="guide6138" />
    <sodipodi:guide
       position="55,3"
       orientation="0,-40"
       id="guide6156" />
    <sodipodi:guide
       position="53,4.3973202"
       orientation="-56,0"
       id="guide6158" />
    <sodipodi:guide
       position="21,48"
       orientation="0,22"
       id="guide4238" />
    <sodipodi:guide
       position="43,48"
       orientation="22,0"
       id="guide4240" />
    <sodipodi:guide
       position="43,26"
       orientation="0,-22"
       id="guide4242" />
    <sodipodi:guide
       position="21,26"
       orientation="-22,0"
       id="guide4244" />
  </sodipodi:namedview>
  <g
     id="g4186"
     transform="translate(56.391766,-0.17677665)">
    <rect
       ry="2.5"
       y="54.477486"
       x="-46.391766"
       height="7.6992903"
       width="44"
       id="rect4162-7"
       style="opacity:1;fill:#6f4900;fill-opacity:1;stroke:none;stroke-width:0.185;stroke-linecap:round;stroke-linejoin:round;stroke-miterlimit:4;stroke-dasharray:none;stroke-dashoffset:0;stroke-opacity:1" />
    <rect
       ry="2.5"
       y="1.6550659"
       x="-46.391766"
       height="52.831711"
       width="44"
       id="rect4174-1"
       style="opacity:1;fill:url(#linearGradient4182-8);fill-opacity:1;stroke:none;stroke-width:0.30000001;stroke-linecap:round;stroke-linejoin:round;stroke-miterlimit:4;stroke-dasharray:none;stroke-dashoffset:0;stroke-opacity:1" />
    <rect
       ry="0"
       y="51.264935"
       x="-46.391766"
       height="7.9118414"
       width="44"
       id="rect4184-4"
       style="opacity:1;fill:#6f4a00;fill-opacity:1;stroke:none;stroke-width:0.185;stroke-linecap:round;stroke-linejoin:round;stroke-miterlimit:4;stroke-dasharray:none;stroke-dashoffset:0;stroke-opacity:1" />
    <g
       transform="matrix(0.28489385,0,0,0.28489385,-5.6010751,44.755167)"
       id="text4348"
       style="font-style:normal;font-weight:normal;font-size:30.50455666px;line-height:125%;font-family:sans-serif;letter-spacing:0px;word-spacing:0px;fill:#ffffff;fill-opacity:1;stroke:none;stroke-width:1px;stroke-linecap:butt;stroke-linejoin:miter;stroke-opacity:1">
      <path
         inkscape:connector-curvature="0"
         id="path4353"
         style="font-style:normal;font-variant:normal;font-weight:normal;font-stretch:normal;font-family:'Product Sans';-inkscape-font-specification:'Product Sans';fill:#ffffff;fill-opacity:1"
         d="m -75.291391,31.46808 q -0.579587,0.579587 -1.40321,0.579587 -0.823623,0 -1.40321,-0.579587 -0.579586,-0.579586 -0.579586,-1.403209 0,-0.823623 0.579586,-1.40321 0.579587,-0.579586 1.40321,-0.579586 0.823623,0 1.40321,0.579586 0.579586,0.579587 0.579586,1.40321 0,0.823623 -0.579586,1.403209 z m -4.48417,25.593323 q -0.823623,0 -1.647246,-0.305045 l 0.732109,-2.440365 q 0.396559,0.183028 0.823623,0.183028 1.769264,0 1.769264,-2.318347 l 0,-16.960533 2.80642,0 0,16.960533 q 0,2.470869 -1.189678,3.660547 -1.189678,1.220182 -3.294492,1.220182 z" />
      <path
         inkscape:connector-curvature="0"
         id="path4355"
         style="font-style:normal;font-variant:normal;font-weight:normal;font-stretch:normal;font-family:'Product Sans';-inkscape-font-specification:'Product Sans';fill:#ffffff;fill-opacity:1"
         d="m -66.236304,50.655447 q -2.501374,0 -4.14862,-1.220183 -1.616742,-1.220182 -2.379356,-3.050455 l 2.501374,-1.037155 q 1.189678,2.806419 4.057106,2.806419 1.311696,0 2.135319,-0.579587 0.854128,-0.579586 0.854128,-1.525227 0,-1.464219 -2.043806,-1.982797 l -3.019951,-0.732109 q -1.433714,-0.366055 -2.714905,-1.372705 -1.281192,-1.037155 -1.281192,-2.775915 0,-1.982796 1.73876,-3.202978 1.769264,-1.250687 4.179124,-1.250687 1.982797,0 3.538529,0.915137 1.555732,0.884632 2.226833,2.562382 l -2.440365,1.006651 q -0.823623,-1.982796 -3.41651,-1.982796 -1.250687,0 -2.104815,0.518577 -0.854127,0.518578 -0.854127,1.40321 0,1.281191 1.982796,1.738759 l 2.958942,0.701605 q 2.104814,0.488073 3.111465,1.677751 1.00665,1.189678 1.00665,2.684401 0,2.013301 -1.647246,3.355501 -1.647246,1.342201 -4.240133,1.342201 z" />
    </g>
    <g
       id="g3426"
       transform="translate(-25.728745,0.07268111)"
       style="fill:#6f4a00;fill-opacity:1">
      <path
         d="m -10.662959,34.408327 2.9022926,-1.756434 c 0.559947,0.992735 1.069266,1.832655 2.290974,1.832655 1.17108,0 1.909372,-0.458132 1.909372,-2.239974 l 0,-12.117871 3.56393104,0 0,12.168252 c 0,3.691337 -2.16375304,5.37155 -5.32061304,5.37155 -2.851045,0 -4.505974,-1.476522 -5.3460186,-3.258488"
         id="j"
         inkscape:connector-curvature="0"
         style="fill:#6f4a00;fill-opacity:1" />
      <path
         d="m 1.9395056,34.026477 2.901859,-1.680212 c 0.763947,1.247549 1.756744,2.164 3.51324,2.164 1.476709,0 2.4183204,-0.738354 2.4183204,-1.756682 0,-1.221956 -0.9672664,-1.654744 -2.5966034,-2.367381 l -0.890797,-0.382098 c -2.571319,-1.094487 -4.277063,-2.469195 -4.277063,-5.371303 0,-2.673009 2.036531,-4.709727 5.21886,-4.709727 2.2656914,0 3.8949664,0.789293 5.0659224,2.851355 l -2.774886,1.781903 C 9.9073486,23.461783 9.2455876,23.029058 8.2273216,23.029058 c -1.043735,0 -1.705682,0.661947 -1.705682,1.527274 0,1.069328 0.662009,1.502116 2.189284,2.164063 l 0.890921,0.381788 c 3.0294524,1.298425 4.7351344,2.622072 4.7351344,5.600462 0,3.207798 -2.520258,4.96417 -5.9060294,4.96417 -3.309364,0 -5.447833,-1.578213 -6.491444,-3.640338"
         id="s"
         inkscape:connector-curvature="0"
         style="fill:#6f4a00;fill-opacity:1" />
    </g>
  </g>
</svg>
